<svg width="40" height="40" viewBox="0 0 34 34" fill="white" xmlns="http://www.w3.org/2000/svg">
<path fill-rule="evenodd" clip-rule="evenodd" d="M7.7487 7.7487C8.16363 7.33377 8.83637 7.33377 9.2513 7.7487L17 15.4974L24.7487 7.7487C25.1636 7.33377 25.8364 7.33377 26.2513 7.7487C26.6662 8.16363 26.6662 8.83637 26.2513 9.2513L18.5026 17L26.2513 24.7487C26.6662 25.1636 26.6662 25.8364 26.2513 26.2513C25.8364 26.6662 25.1636 26.6662 24.7487 26.2513L17 18.5026L9.2513 26.2513C8.83637 26.6662 8.16363 26.6662 7.7487 26.2513C7.33377 25.8364 7.33377 25.1636 7.7487 24.7487L15.4974 17L7.7487 9.2513C7.33377 8.83637 7.33377 8.16363 7.7487 7.7487Z"/>
</svg>
