<svg width="21" height="20" viewBox="0 0 21 20" fill="none" xmlns="http://www.w3.org/2000/svg">
<path fill-rule="evenodd" clip-rule="evenodd" d="M7.20825 3.125L16.5833 3.125C16.749 3.125 16.908 3.19085 17.0252 3.30806C17.1424 3.42527 17.2083 3.58424 17.2083 3.75V13.125C17.2083 13.4702 16.9284 13.75 16.5833 13.75C16.2381 13.75 15.9583 13.4702 15.9583 13.125V5.25888L4.52519 16.6919C4.28112 16.936 3.88539 16.936 3.64131 16.6919C3.39723 16.4479 3.39723 16.0521 3.64131 15.8081L15.0744 4.375L7.20825 4.375C6.86307 4.375 6.58325 4.09518 6.58325 3.75C6.58325 3.40482 6.86307 3.125 7.20825 3.125Z" fill="#141414"/>
</svg>
