<svg width="20" height="20" viewBox="0 0 20 20" fill="none" xmlns="http://www.w3.org/2000/svg">
<path d="M17.387 1.33325H2.61279C2.27343 1.33325 1.94798 1.46806 1.70802 1.70802C1.46806 1.94798 1.33325 2.27343 1.33325 2.61279V17.387C1.33325 17.7264 1.46806 18.0519 1.70802 18.2918C1.94798 18.5318 2.27343 18.6666 2.61279 18.6666H17.387C17.7264 18.6666 18.0519 18.5318 18.2918 18.2918C18.5318 18.0519 18.6666 17.7264 18.6666 17.387V2.61279C18.6666 2.27343 18.5318 1.94798 18.2918 1.70802C18.0519 1.46806 17.7264 1.33325 17.387 1.33325ZM6.49955 16.0991H3.89353V7.82122H6.49955V16.0991ZM5.19473 6.67409C4.89913 6.67242 4.61064 6.58323 4.36567 6.41776C4.12071 6.25229 3.93025 6.01797 3.81833 5.74436C3.70641 5.47075 3.67805 5.17012 3.73683 4.88041C3.79561 4.5907 3.93889 4.3249 4.14859 4.11654C4.35829 3.90818 4.62501 3.76661 4.91509 3.7097C5.20517 3.65278 5.50561 3.68307 5.77849 3.79674C6.05138 3.91041 6.28447 4.10237 6.44837 4.34839C6.61226 4.59442 6.6996 4.88347 6.69936 5.17909C6.70215 5.377 6.66507 5.57345 6.59032 5.75672C6.51557 5.94 6.40468 6.10635 6.26428 6.24586C6.12387 6.38537 5.95681 6.49518 5.77306 6.56875C5.58931 6.64232 5.39262 6.67814 5.19473 6.67409ZM16.1051 16.1063H13.5003V11.584C13.5003 10.2503 12.9333 9.83862 12.2015 9.83862C11.4287 9.83862 10.6704 10.4212 10.6704 11.6177V16.1063H8.06436V7.82723H10.5705V8.97436H10.6042C10.8558 8.4652 11.7369 7.59492 13.0814 7.59492C14.5355 7.59492 16.1063 8.45797 16.1063 10.9858L16.1051 16.1063Z" fill="white"/>
</svg>
