<svg width="20" height="20" viewBox="0 0 20 20" fill="none" xmlns="http://www.w3.org/2000/svg">
<path d="M11.2812 10.1897C11.2812 13.332 8.75578 15.8793 5.6407 15.8793C2.52561 15.8793 0 13.3314 0 10.1897C0 7.04806 2.52542 4.5 5.6407 4.5C8.75597 4.5 11.2812 7.04749 11.2812 10.1897Z" fill="white"/>
<path d="M17.4691 10.1897C17.4691 13.1475 16.2064 15.5462 14.6487 15.5462C13.0911 15.5462 11.8284 13.1475 11.8284 10.1897C11.8284 7.23195 13.0909 4.83325 14.6485 4.83325C16.2062 4.83325 17.4689 7.23118 17.4689 10.1897" fill="white"/>
<path d="M20 10.1897C20 12.8391 19.556 14.9882 19.0081 14.9882C18.4602 14.9882 18.0164 12.8397 18.0164 10.1897C18.0164 7.53965 18.4604 5.39111 19.0081 5.39111C19.5558 5.39111 20 7.53946 20 10.1897Z" fill="white"/>
</svg>
