<svg width="180" height="50" viewBox="0 0 180 50" fill="none" xmlns="http://www.w3.org/2000/svg">
<path d="M165.509 16.3635H168.579V21.0745L168.392 23.1604H168.579C168.907 22.6135 169.376 22.1682 169.985 21.8245C170.61 21.4651 171.306 21.2854 172.071 21.2854C173.556 21.2854 174.649 21.7229 175.352 22.5979C176.071 23.4729 176.431 24.6682 176.431 26.1838V33.1448H173.36V26.5588C173.36 25.762 173.173 25.1604 172.798 24.7542C172.423 24.3323 171.899 24.1213 171.227 24.1213C170.806 24.1213 170.431 24.2151 170.102 24.4026C169.774 24.5745 169.493 24.8167 169.259 25.1292C169.04 25.4417 168.868 25.8088 168.743 26.2307C168.634 26.637 168.579 27.0745 168.579 27.5432V33.1448H165.509V16.3635Z" fill="white"/>
<path d="M164.339 30.2151C163.839 31.1838 163.136 31.9807 162.229 32.6057C161.339 33.2151 160.222 33.5198 158.878 33.5198C157.987 33.5198 157.167 33.3713 156.417 33.0745C155.682 32.762 155.042 32.3323 154.495 31.7854C153.964 31.2385 153.542 30.5979 153.229 29.8635C152.932 29.1135 152.784 28.2932 152.784 27.4026C152.784 26.512 152.932 25.6917 153.229 24.9417C153.542 24.1917 153.964 23.551 154.495 23.0198C155.042 22.4729 155.682 22.051 156.417 21.7542C157.167 21.4417 157.987 21.2854 158.878 21.2854C160.206 21.2854 161.323 21.5901 162.229 22.1995C163.136 22.8088 163.8 23.5979 164.222 24.5667L161.409 25.7385C161.143 25.2073 160.8 24.8088 160.378 24.5432C159.972 24.262 159.456 24.1213 158.831 24.1213C158.425 24.1213 158.042 24.1995 157.682 24.3557C157.323 24.512 157.003 24.7307 156.722 25.012C156.456 25.2932 156.245 25.637 156.089 26.0432C155.932 26.4495 155.854 26.9026 155.854 27.4026C155.854 27.9026 155.932 28.3557 156.089 28.762C156.245 29.1682 156.456 29.512 156.722 29.7932C157.003 30.0745 157.323 30.2932 157.682 30.4495C158.042 30.6057 158.425 30.6838 158.831 30.6838C159.472 30.6838 160.011 30.5432 160.448 30.262C160.901 29.9651 161.261 29.5432 161.526 28.9963L164.339 30.2151Z" fill="white"/>
<path d="M151.881 30.3792C151.349 31.3167 150.631 32.0745 149.724 32.6526C148.834 33.2307 147.74 33.5198 146.443 33.5198C145.568 33.5198 144.756 33.3713 144.006 33.0745C143.271 32.762 142.631 32.3323 142.084 31.7854C141.537 31.2385 141.107 30.5979 140.795 29.8635C140.498 29.1135 140.349 28.2932 140.349 27.4026C140.349 26.5745 140.498 25.7932 140.795 25.0588C141.092 24.3088 141.506 23.6604 142.037 23.1135C142.568 22.551 143.193 22.1057 143.912 21.7776C144.646 21.4495 145.451 21.2854 146.326 21.2854C147.248 21.2854 148.068 21.4417 148.787 21.7542C149.506 22.051 150.107 22.4729 150.592 23.0198C151.076 23.551 151.443 24.1838 151.693 24.9182C151.943 25.6526 152.068 26.4495 152.068 27.3088C152.068 27.4182 152.068 27.512 152.068 27.5901C152.052 27.6838 152.045 27.7698 152.045 27.8479C152.029 27.926 152.021 28.012 152.021 28.1057H143.373C143.435 28.5745 143.56 28.9807 143.748 29.3245C143.951 29.6526 144.193 29.9338 144.474 30.1682C144.771 30.387 145.092 30.551 145.435 30.6604C145.779 30.7542 146.131 30.801 146.49 30.801C147.193 30.801 147.771 30.6448 148.224 30.3323C148.693 30.0042 149.06 29.5979 149.326 29.1135L151.881 30.3792ZM149.092 25.926C149.076 25.7229 149.006 25.4963 148.881 25.2463C148.771 24.9963 148.599 24.762 148.365 24.5432C148.146 24.3245 147.865 24.1448 147.521 24.0042C147.193 23.8635 146.795 23.7932 146.326 23.7932C145.67 23.7932 145.092 23.9807 144.592 24.3557C144.092 24.7307 143.74 25.2542 143.537 25.926H149.092Z" fill="white"/>
<path d="M133.859 33.1448V19.3635H129.171V16.3635H141.71V19.3635H137.023V33.1448H133.859Z" fill="white"/>
<path d="M128.476 30.3792C127.945 31.3167 127.226 32.0745 126.32 32.6526C125.429 33.2307 124.335 33.5198 123.039 33.5198C122.164 33.5198 121.351 33.3713 120.601 33.0745C119.867 32.762 119.226 32.3323 118.679 31.7854C118.132 31.2385 117.703 30.5979 117.39 29.8635C117.093 29.1135 116.945 28.2932 116.945 27.4026C116.945 26.5745 117.093 25.7932 117.39 25.0588C117.687 24.3088 118.101 23.6604 118.632 23.1135C119.164 22.551 119.789 22.1057 120.507 21.7776C121.242 21.4495 122.046 21.2854 122.921 21.2854C123.843 21.2854 124.664 21.4417 125.382 21.7542C126.101 22.051 126.703 22.4729 127.187 23.0198C127.671 23.551 128.039 24.1838 128.289 24.9182C128.539 25.6526 128.664 26.4495 128.664 27.3088C128.664 27.4182 128.664 27.512 128.664 27.5901C128.648 27.6838 128.64 27.7698 128.64 27.8479C128.624 27.926 128.617 28.012 128.617 28.1057H119.968C120.031 28.5745 120.156 28.9807 120.343 29.3245C120.546 29.6526 120.789 29.9338 121.07 30.1682C121.367 30.387 121.687 30.551 122.031 30.6604C122.374 30.7542 122.726 30.801 123.085 30.801C123.789 30.801 124.367 30.6448 124.82 30.3323C125.289 30.0042 125.656 29.5979 125.921 29.1135L128.476 30.3792ZM125.687 25.926C125.671 25.7229 125.601 25.4963 125.476 25.2463C125.367 24.9963 125.195 24.762 124.96 24.5432C124.742 24.3245 124.46 24.1448 124.117 24.0042C123.789 23.8635 123.39 23.7932 122.921 23.7932C122.265 23.7932 121.687 23.9807 121.187 24.3557C120.687 24.7307 120.335 25.2542 120.132 25.926H125.687Z" fill="white"/>
<path d="M109.469 21.6604H112.352V23.2542H112.54C112.68 22.9729 112.868 22.7151 113.102 22.4807C113.337 22.2463 113.594 22.0432 113.876 21.8713C114.172 21.6995 114.485 21.5667 114.813 21.4729C115.157 21.3792 115.493 21.3323 115.821 21.3323C116.227 21.3323 116.571 21.3713 116.852 21.4495C117.149 21.5276 117.399 21.6291 117.602 21.7541L116.782 24.5432C116.594 24.4495 116.383 24.3791 116.149 24.3323C115.93 24.2698 115.657 24.2385 115.329 24.2385C114.907 24.2385 114.524 24.3245 114.18 24.4963C113.837 24.6526 113.54 24.8791 113.29 25.176C113.055 25.4729 112.868 25.8245 112.727 26.2307C112.602 26.6213 112.54 27.051 112.54 27.5198V33.1448H109.469V21.6604Z" fill="white"/>
<path d="M104.66 31.6448H104.472C104.113 32.2229 103.628 32.6838 103.019 33.0276C102.41 33.3557 101.714 33.5198 100.933 33.5198C99.4798 33.5198 98.3939 33.0745 97.6751 32.1838C96.972 31.2932 96.6205 30.1057 96.6205 28.6213V21.6604H99.6908V28.2463C99.6908 29.0745 99.8705 29.6917 100.23 30.0979C100.605 30.4885 101.144 30.6838 101.847 30.6838C102.269 30.6838 102.636 30.5979 102.949 30.426C103.277 30.2385 103.55 29.9963 103.769 29.6995C104.003 29.387 104.175 29.0276 104.285 28.6213C104.41 28.1995 104.472 27.7542 104.472 27.2854V21.6604H107.542V33.1448H104.66V31.6448Z" fill="white"/>
<path d="M89.2759 24.2854H87.2603V21.6604H89.2759V18.1448H92.3462V21.6604H95.1587V24.2854H92.3462V28.7385C92.3462 29.0042 92.3697 29.2542 92.4165 29.4885C92.479 29.7073 92.5884 29.8948 92.7447 30.051C92.9634 30.301 93.2759 30.426 93.6822 30.426C93.9478 30.426 94.1587 30.4026 94.315 30.3557C94.4712 30.2932 94.6197 30.2151 94.7603 30.1213L95.6275 32.8167C95.2681 32.9885 94.8775 33.1135 94.4556 33.1917C94.0493 33.2854 93.5962 33.3323 93.0962 33.3323C92.5181 33.3323 91.9947 33.2463 91.5259 33.0745C91.0728 32.887 90.69 32.637 90.3775 32.3245C89.6431 31.6213 89.2759 30.6213 89.2759 29.3245V24.2854Z" fill="white"/>
<path d="M83.086 31.6448H82.8985C82.5392 32.2229 82.0548 32.6838 81.4454 33.0276C80.836 33.3557 80.1407 33.5198 79.3595 33.5198C77.9063 33.5198 76.8204 33.0745 76.1017 32.1838C75.3985 31.2932 75.047 30.1057 75.047 28.6213V21.6604H78.1173V28.2463C78.1173 29.0745 78.297 29.6917 78.6563 30.0979C79.0313 30.4885 79.5704 30.6838 80.2735 30.6838C80.6954 30.6838 81.0626 30.5979 81.3751 30.426C81.7032 30.2385 81.9767 29.9963 82.1954 29.6995C82.4298 29.387 82.6017 29.0276 82.711 28.6213C82.836 28.1995 82.8985 27.7542 82.8985 27.2854V21.6604H85.9688V33.1448H83.086V31.6448Z" fill="white"/>
<path d="M63.6075 16.3635H74.2481V19.3635H66.7715V23.4416H73.4981V26.4417H66.7715V33.1448H63.6075V16.3635Z" fill="white"/>
<path d="M34.2135 49.9999V41.6666C38.8246 41.6666 42.5468 37.9444 42.5468 33.3333H50.8801C50.8801 42.5555 43.4079 49.9999 34.2135 49.9999Z" fill="#FFD11A"/>
<path d="M34.2135 49.9999V41.6666C29.6024 41.6666 25.8802 37.9444 25.8802 33.3333H17.5468C17.5468 42.5555 25.0191 49.9999 34.2135 49.9999Z" fill="#FFD11A"/>
<path d="M0.880188 33.3335H9.21352C9.21352 37.9446 12.9357 41.6668 17.5469 41.6668V50.0002C8.35241 50.0002 0.880188 42.5557 0.880188 33.3335Z" fill="#FFD11A"/>
<path d="M0.880188 33.3334H9.21352C9.21352 28.7223 12.9357 25.0001 17.5469 25.0001V16.6667C8.35241 16.6667 0.880188 24.139 0.880188 33.3334Z" fill="#FFD11A"/>
<path d="M17.5469 0V8.33333C12.9357 8.33333 9.21352 12.0556 9.21352 16.6667H0.880188C0.880188 7.47222 8.35241 0 17.5469 0Z" fill="#FFD11A"/>
<path d="M17.5468 0V8.33333C22.158 8.33333 25.8802 12.0556 25.8802 16.6667H34.2135C34.2135 7.47222 26.7413 0 17.5468 0Z" fill="#FFD11A"/>
<path d="M50.8802 16.6667H42.5469C42.5469 12.0556 38.8246 8.33333 34.2135 8.33333V0C43.408 0 50.8802 7.47222 50.8802 16.6667Z" fill="#FFD11A"/>
<path d="M50.8802 16.6667H42.5469C42.5469 21.2779 38.8247 25.0001 34.2136 25.0001V33.3334C43.408 33.3334 50.8802 25.889 50.8802 16.6667Z" fill="#FFD11A"/>
</svg>
