<svg width="51" height="50" viewBox="0 0 51 50" fill="none" xmlns="http://www.w3.org/2000/svg">
<path d="M34.2135 49.9999V41.6666C38.8246 41.6666 42.5468 37.9444 42.5468 33.3333H50.8801C50.8801 42.5555 43.4079 49.9999 34.2135 49.9999Z" fill="#FFD11A"/>
<path d="M34.2135 49.9999V41.6666C29.6024 41.6666 25.8802 37.9444 25.8802 33.3333H17.5468C17.5468 42.5555 25.0191 49.9999 34.2135 49.9999Z" fill="#FFD11A"/>
<path d="M0.880188 33.3335H9.21352C9.21352 37.9446 12.9357 41.6668 17.5469 41.6668V50.0002C8.35241 50.0002 0.880188 42.5557 0.880188 33.3335Z" fill="#FFD11A"/>
<path d="M0.880188 33.3334H9.21352C9.21352 28.7223 12.9357 25.0001 17.5469 25.0001V16.6667C8.35241 16.6667 0.880188 24.139 0.880188 33.3334Z" fill="#FFD11A"/>
<path d="M17.5469 0V8.33333C12.9357 8.33333 9.21352 12.0556 9.21352 16.6667H0.880188C0.880188 7.47222 8.35241 0 17.5469 0Z" fill="#FFD11A"/>
<path d="M17.5468 0V8.33333C22.158 8.33333 25.8802 12.0556 25.8802 16.6667H34.2135C34.2135 7.47222 26.7413 0 17.5468 0Z" fill="#FFD11A"/>
<path d="M50.8802 16.6667H42.5469C42.5469 12.0556 38.8246 8.33333 34.2135 8.33333V0C43.408 0 50.8802 7.47222 50.8802 16.6667Z" fill="#FFD11A"/>
<path d="M50.8802 16.6667H42.5469C42.5469 21.2779 38.8247 25.0001 34.2136 25.0001V33.3334C43.408 33.3334 50.8802 25.889 50.8802 16.6667Z" fill="#FFD11A"/>
</svg>
